<mxfile host="app.diagrams.net" agent="Mozilla/5.0 (Windows NT 10.0; Win64; x64) AppleWebKit/537.36 (KHTML, like Gecko) Chrome/138.0.0.0 Safari/537.36" version="28.0.9">
  <diagram name="Page-1" id="F8jQMDGibLngQn82TKlR">
    <mxGraphModel dx="1719" dy="1055" grid="1" gridSize="10" guides="1" tooltips="1" connect="1" arrows="1" fold="1" page="1" pageScale="1" pageWidth="850" pageHeight="1100" math="0" shadow="0">
      <root>
        <mxCell id="0" />
        <mxCell id="1" parent="0" />
        <mxCell id="xVeKyl4CdyHUlhLIrinG-19" style="edgeStyle=orthogonalEdgeStyle;rounded=0;orthogonalLoop=1;jettySize=auto;html=1;exitX=0;exitY=0;exitDx=0;exitDy=0;" edge="1" parent="1" source="xVeKyl4CdyHUlhLIrinG-1">
          <mxGeometry relative="1" as="geometry">
            <mxPoint x="150" y="40" as="targetPoint" />
          </mxGeometry>
        </mxCell>
        <mxCell id="xVeKyl4CdyHUlhLIrinG-1" value="" style="rounded=0;whiteSpace=wrap;html=1;" vertex="1" parent="1">
          <mxGeometry x="-10" y="70" width="760" height="900" as="geometry" />
        </mxCell>
        <mxCell id="xVeKyl4CdyHUlhLIrinG-2" value="" style="whiteSpace=wrap;html=1;aspect=fixed;" vertex="1" parent="1">
          <mxGeometry x="70" y="90" width="70" height="70" as="geometry" />
        </mxCell>
        <mxCell id="xVeKyl4CdyHUlhLIrinG-3" value="" style="rounded=1;whiteSpace=wrap;html=1;" vertex="1" parent="1">
          <mxGeometry x="690" y="115" width="90" height="35" as="geometry" />
        </mxCell>
        <mxCell id="xVeKyl4CdyHUlhLIrinG-4" value="" style="rounded=1;whiteSpace=wrap;html=1;" vertex="1" parent="1">
          <mxGeometry x="590" y="120" width="70" height="30" as="geometry" />
        </mxCell>
        <mxCell id="xVeKyl4CdyHUlhLIrinG-5" value="" style="rounded=1;whiteSpace=wrap;html=1;" vertex="1" parent="1">
          <mxGeometry x="480" y="120" width="80" height="30" as="geometry" />
        </mxCell>
        <mxCell id="xVeKyl4CdyHUlhLIrinG-6" value="&lt;h1 style=&quot;margin-top: 0px;&quot;&gt;Heading&lt;/h1&gt;&lt;p&gt;Lorem ipsum dolor sit amet, consectetur adipisicing elit, sed do eiusmod tempor incididunt ut labore et dolore magna aliqua.&lt;/p&gt;" style="text;html=1;whiteSpace=wrap;overflow=hidden;rounded=0;" vertex="1" parent="1">
          <mxGeometry x="230" y="120" width="430" height="50" as="geometry" />
        </mxCell>
        <mxCell id="xVeKyl4CdyHUlhLIrinG-11" value="" style="rounded=0;whiteSpace=wrap;html=1;" vertex="1" parent="1">
          <mxGeometry x="60" y="220" width="740" height="210" as="geometry" />
        </mxCell>
        <mxCell id="xVeKyl4CdyHUlhLIrinG-12" value="" style="rounded=0;whiteSpace=wrap;html=1;" vertex="1" parent="1">
          <mxGeometry x="110" y="460" width="240" height="350" as="geometry" />
        </mxCell>
        <mxCell id="xVeKyl4CdyHUlhLIrinG-13" value="" style="rounded=0;whiteSpace=wrap;html=1;" vertex="1" parent="1">
          <mxGeometry x="490" y="460" width="240" height="350" as="geometry" />
        </mxCell>
        <mxCell id="xVeKyl4CdyHUlhLIrinG-14" value="" style="rounded=0;whiteSpace=wrap;html=1;" vertex="1" parent="1">
          <mxGeometry x="70" y="890" width="720" height="90" as="geometry" />
        </mxCell>
        <mxCell id="xVeKyl4CdyHUlhLIrinG-15" value="Text" style="text;html=1;align=center;verticalAlign=middle;whiteSpace=wrap;rounded=0;" vertex="1" parent="1">
          <mxGeometry x="140" y="620" width="190" height="120" as="geometry" />
        </mxCell>
        <mxCell id="xVeKyl4CdyHUlhLIrinG-16" value="Text" style="text;html=1;align=center;verticalAlign=middle;whiteSpace=wrap;rounded=0;" vertex="1" parent="1">
          <mxGeometry x="515" y="620" width="190" height="120" as="geometry" />
        </mxCell>
        <mxCell id="xVeKyl4CdyHUlhLIrinG-17" value="" style="whiteSpace=wrap;html=1;aspect=fixed;" vertex="1" parent="1">
          <mxGeometry x="185" y="490" width="90" height="90" as="geometry" />
        </mxCell>
        <mxCell id="xVeKyl4CdyHUlhLIrinG-18" value="" style="whiteSpace=wrap;html=1;aspect=fixed;" vertex="1" parent="1">
          <mxGeometry x="565" y="490" width="90" height="90" as="geometry" />
        </mxCell>
      </root>
    </mxGraphModel>
  </diagram>
</mxfile>
